Coordinates
version=1
nRows=27
nColumns=12
inDegrees=yes

Units are S.I. units (second, meters, Newtons, ...)
Angles are in degrees

endheader
time	SC_y	SC_z	SC_x	AC_y	AC_z	AC_x	GH_y	GH_z	GH_yy	EL_x	PS_y
       0.0              -40.29          19.54          23.28          46.86          3.506          2.075          11.17          22.21          57.14          37.11          101.5
  0.002102              -40.29          19.54          23.28          46.86          3.505          2.072          11.15          22.21          57.11           37.1          101.5
  0.004203               -40.3          19.54          23.28          46.86          3.504          2.069          11.14           22.2          57.08           37.1          101.5
  0.006305               -40.3          19.54          23.28          46.86          3.504          2.066          11.12           22.2          57.05           37.1          101.4
  0.008406               -40.3          19.54          23.29          46.86          3.503          2.063           11.1          22.19          57.02           37.1          101.4
   0.01051              -40.31          19.54          23.29          46.86          3.503          2.059          11.08          22.18          56.98          37.09          101.4
   0.01261              -40.31          19.53           23.3          46.85          3.502          2.056          11.06          22.17          56.94          37.09          101.4
   0.01471              -40.32          19.53           23.3          46.85          3.501          2.052          11.04          22.17           56.9          37.09          101.4
   0.01681              -40.32          19.53           23.3          46.85            3.5          2.048          11.02          22.16          56.86          37.08          101.4
   0.01891              -40.32          19.53          23.31          46.85            3.5          2.043          10.99          22.15          56.81          37.08          101.3
   0.02102              -40.33          19.53          23.31          46.85          3.499          2.039          10.96          22.14          56.76          37.08          101.3
   0.02312              -40.33          19.53          23.32          46.85          3.498          2.033          10.93          22.13          56.71          37.07          101.3
   0.02522              -40.34          19.53          23.32          46.84          3.497          2.028           10.9          22.12          56.65          37.07          101.3
   0.02732              -40.35          19.53          23.33          46.84          3.496          2.022          10.87           22.1          56.58          37.06          101.3
   0.02942              -40.35          19.52          23.34          46.84          3.494          2.015          10.83          22.09          56.52          37.06          101.2
   0.03152              -40.36          19.52          23.34          46.84          3.493          2.008          10.79          22.07          56.44          37.05          101.2
   0.03362              -40.37          19.52          23.35          46.83          3.492          2.001          10.75          22.06          56.36          37.04          101.2
   0.03573              -40.38          19.52          23.36          46.83           3.49          1.992           10.7          22.04          56.27          37.04          101.1
   0.03783              -40.39          19.52          23.37          46.82          3.488          1.983          10.65          22.02          56.18          37.03          101.1
   0.03993               -40.4          19.51          23.38          46.82          3.486          1.973          10.59           22.0          56.07          37.02          101.1
   0.04203              -40.41          19.51          23.39          46.82          3.484          1.962          10.53          21.98          55.96          37.01          101.0
   0.04413              -40.42          19.51           23.4          46.81          3.482           1.95          10.46          21.95          55.83           37.0          101.0
   0.04623              -40.44           19.5          23.41          46.81          3.479          1.937          10.39          21.93          55.69          36.99          100.9
   0.04833              -40.45           19.5          23.43           46.8          3.477          1.922          10.31          21.89          55.53          36.98          100.9
   0.05044              -40.47           19.5          23.45          46.79          3.474          1.906          10.21          21.86          55.36          36.97          100.8
   0.05254              -40.49          19.49          23.46          46.79           3.47          1.887          10.11          21.82          55.17          36.95          100.7
   0.05464              -40.51          19.49          23.48          46.78          3.466          1.867          9.995          21.78          54.95          36.93          100.6
